<?xml version="1.0" standalone="no"?>
<!DOCTYPE svg PUBLIC "-//W3C//DTD SVG 20010904//EN"
 "http://www.w3.org/TR/2001/REC-SVG-20010904/DTD/svg10.dtd">
<svg version="1.0" xmlns="http://www.w3.org/2000/svg"
 width="542.000000pt" height="542.000000pt" viewBox="0 0 542.000000 542.000000"
 preserveAspectRatio="xMidYMid meet">
<metadata>
Created by potrace 1.11, written by Peter Selinger 2001-2013
</metadata>
<g transform="translate(0.000000,542.000000) scale(0.100000,-0.100000)"
fill="#000000" stroke="none">
<path d="M3510 4529 c0 -5 -6 -6 -13 -3 -15 5 -80 -40 -70 -49 3 -4 -2 -9 -11
-13 -9 -3 -13 -10 -10 -15 3 -5 0 -9 -6 -9 -6 0 -9 -4 -6 -9 4 -5 3 -11 -1
-13 -11 -4 -68 -82 -65 -87 2 -2 0 -7 -5 -10 -5 -3 -29 -35 -53 -71 -24 -36
-46 -67 -49 -70 -3 -3 -12 -17 -20 -32 -8 -16 -18 -28 -23 -28 -4 0 -8 -7 -8
-15 0 -8 -4 -15 -10 -15 -5 0 -10 -7 -10 -15 0 -8 -5 -15 -12 -15 -6 0 -9 -3
-6 -6 3 -3 -5 -17 -18 -31 -13 -14 -21 -29 -18 -34 3 -5 1 -9 -4 -9 -11 0 -67
-81 -64 -92 1 -5 -2 -8 -6 -8 -4 0 -16 -15 -27 -32 -10 -18 -23 -37 -27 -43
-4 -5 -18 -23 -31 -40 -13 -16 -29 -40 -36 -53 -7 -12 -16 -20 -22 -17 -5 4
-9 2 -9 -2 0 -5 -27 -6 -60 -3 -33 3 -60 3 -60 0 0 -3 -16 -4 -35 -2 -19 2
-35 8 -35 14 0 5 -4 7 -8 4 -5 -3 -18 3 -29 14 -12 10 -24 16 -27 13 -3 -4 -6
-1 -6 6 0 7 -5 9 -10 6 -6 -3 -13 0 -16 9 -3 8 -12 12 -20 9 -8 -3 -14 0 -14
7 0 6 -4 8 -10 5 -5 -3 -10 -3 -10 2 0 4 -25 19 -55 33 -30 14 -55 28 -55 33
0 4 -7 7 -15 7 -8 0 -15 5 -15 10 0 6 -9 10 -20 10 -11 0 -20 5 -20 11 0 5 -4
7 -10 4 -5 -3 -10 -1 -10 5 0 6 -4 8 -10 5 -5 -3 -10 -1 -10 5 0 6 -4 8 -10 5
-5 -3 -10 -1 -10 4 0 6 -6 10 -12 8 -7 -1 -12 4 -10 11 1 7 -3 12 -10 10 -7
-2 -34 9 -60 25 -26 15 -51 27 -57 27 -6 0 -11 5 -11 10 0 6 -9 10 -20 10 -11
0 -20 5 -20 10 0 6 -5 10 -10 10 -6 0 -28 11 -49 24 -21 14 -42 22 -45 19 -3
-4 -6 -1 -6 6 0 8 -6 11 -16 7 -8 -3 -13 -2 -10 3 5 8 -42 36 -56 33 -5 -1 -8
3 -8 9 0 5 -4 7 -10 4 -5 -3 -10 -1 -10 5 0 6 -4 8 -10 5 -5 -3 -10 -1 -10 5
0 6 -4 8 -10 5 -5 -3 -10 -1 -10 4 0 6 -6 11 -14 11 -7 0 -19 7 -26 15 -7 8
-16 12 -21 9 -5 -3 -9 0 -9 5 0 6 -9 11 -20 11 -11 0 -20 5 -20 12 0 6 -3 8
-7 5 -3 -4 -11 -3 -17 3 -14 11 -98 -28 -90 -42 3 -4 0 -8 -5 -8 -6 0 -11 -7
-11 -15 0 -8 -5 -15 -11 -15 -6 0 -8 -9 -3 -22 4 -13 7 -29 7 -35 0 -7 5 -13
10 -13 6 0 7 -3 4 -6 -8 -9 65 -64 75 -58 5 3 8 0 8 -6 0 -6 5 -8 10 -5 6 3
10 1 10 -4 0 -6 8 -11 18 -11 11 0 27 -9 37 -20 10 -11 21 -17 26 -15 4 3 14
-2 23 -11 9 -8 25 -16 36 -17 11 -1 20 -7 20 -15 0 -7 5 -10 10 -7 6 3 10 1
10 -4 0 -6 9 -11 20 -11 11 0 20 -5 20 -12 0 -6 3 -8 7 -5 3 4 21 -4 38 -18
18 -13 35 -21 39 -18 3 4 6 1 6 -6 0 -7 4 -10 9 -7 5 4 11 1 13 -4 2 -6 11
-12 20 -13 9 -2 22 -8 29 -14 22 -17 83 -47 92 -45 4 1 7 -3 7 -8 0 -6 7 -10
15 -10 8 0 15 -5 15 -11 0 -5 4 -8 9 -5 5 3 12 -1 15 -10 4 -12 2 -15 -9 -10
-8 3 -15 1 -15 -5 0 -6 -7 -6 -20 1 -12 6 -20 7 -20 1 0 -6 -11 -6 -30 -1 -19
5 -30 5 -30 -1 0 -6 -5 -7 -12 -3 -14 9 -68 11 -68 4 0 -3 -27 -3 -60 0 -33 3
-60 3 -60 0 0 -3 -27 -3 -60 0 -33 3 -60 3 -60 -1 0 -4 -13 -4 -30 1 -19 5
-30 5 -30 -1 0 -6 -8 -5 -20 1 -14 8 -20 8 -20 0 0 -8 -6 -8 -20 0 -14 8 -20
8 -20 0 0 -8 -6 -8 -20 0 -11 6 -20 7 -20 2 0 -5 -22 -6 -50 -2 -27 4 -50 4
-50 1 0 -3 -36 -4 -80 -1 -44 3 -80 3 -80 0 0 -3 -36 -3 -80 0 -44 3 -80 2
-80 -1 0 -3 -11 -4 -25 -1 -14 2 -32 -1 -40 -8 -12 -10 -15 -10 -15 0 0 14
-44 -38 -46 -55 0 -5 -2 -12 -3 -15 -8 -16 -7 -56 2 -61 5 -4 6 -12 1 -20 -12
-20 -14 -39 -3 -39 5 0 4 -12 -2 -27 -7 -19 -6 -28 2 -34 7 -4 8 -12 3 -20
-12 -20 -14 -38 -3 -45 6 -3 5 -11 -2 -20 -8 -10 -8 -14 0 -14 7 0 8 -8 0 -27
-7 -19 -6 -28 2 -34 7 -4 8 -12 3 -20 -12 -20 -14 -38 -3 -45 5 -3 5 -12 0
-23 -6 -10 -6 -23 -1 -31 5 -8 6 -19 2 -24 -10 -17 -10 -51 1 -57 5 -4 6 -13
1 -20 -11 -19 -13 -49 -2 -49 5 0 6 -5 2 -12 -10 -16 -12 -58 -2 -58 4 0 3
-12 -3 -27 -7 -19 -6 -28 2 -34 7 -4 8 -12 3 -20 -12 -20 -14 -38 -3 -45 5 -3
5 -13 -1 -25 -8 -13 -7 -19 0 -19 6 0 8 -5 4 -12 -9 -15 -10 -58 -2 -80 4 -9
4 -19 0 -22 -10 -11 -10 -51 1 -57 5 -4 6 -12 1 -20 -12 -20 -14 -39 -3 -39 5
0 4 -12 -2 -27 -7 -19 -6 -28 2 -34 7 -4 8 -12 3 -20 -12 -20 -14 -38 -3 -45
6 -3 5 -11 -2 -20 -8 -10 -8 -14 0 -14 7 0 8 -8 0 -27 -7 -19 -6 -28 2 -34 7
-4 8 -12 3 -20 -12 -20 -14 -38 -3 -45 5 -3 5 -12 0 -23 -6 -10 -6 -23 -1 -31
5 -8 6 -19 2 -24 -10 -17 -10 -51 1 -57 5 -4 6 -13 1 -20 -11 -19 -13 -49 -2
-49 5 0 6 -5 2 -12 -10 -16 -12 -58 -2 -58 4 0 3 -12 -3 -27 -7 -19 -6 -28 2
-34 7 -4 8 -12 3 -20 -12 -20 -14 -38 -3 -45 5 -3 5 -13 -1 -25 -8 -13 -7 -19
0 -19 6 0 8 -5 4 -12 -9 -15 -10 -58 -2 -80 4 -9 4 -19 0 -22 -10 -11 -10 -51
1 -57 5 -4 6 -13 1 -20 -11 -19 -13 -49 -2 -49 5 0 6 -5 2 -12 -10 -16 -12
-58 -2 -58 4 0 3 -12 -3 -27 -7 -19 -6 -28 2 -34 7 -4 8 -12 3 -20 -12 -20
-14 -38 -3 -45 5 -3 7 -10 3 -15 -10 -18 44 -62 76 -62 17 0 30 -4 30 -8 0 -9
20 -7 37 4 6 4 14 3 17 -2 7 -11 25 -9 45 3 8 5 16 4 21 -4 8 -13 19 -13 37 1
7 6 13 6 17 0 7 -11 25 -9 45 3 8 5 16 4 21 -4 4 -6 11 -12 16 -13 5 -1 8 -5
7 -9 -2 -5 1 -8 5 -8 5 0 9 -6 10 -12 2 -28 9 -46 25 -71 10 -15 15 -27 11
-27 -4 0 17 -23 45 -50 28 -28 53 -50 56 -50 2 0 16 -5 32 -11 15 -6 29 -10
30 -10 2 0 16 -4 33 -9 16 -5 30 -5 30 -1 0 5 11 6 25 3 14 -2 32 1 40 8 12
10 15 10 15 -1 1 -10 4 -9 14 4 7 9 21 17 30 17 9 0 16 4 16 8 0 5 11 15 25
22 13 7 22 17 19 22 -3 4 2 8 11 8 9 0 14 4 10 9 -3 6 3 15 14 20 11 6 25 27
31 46 6 19 16 35 21 35 5 0 7 11 5 24 -2 14 2 33 9 43 8 10 15 13 15 6 0 -12
17 -12 37 0 6 4 14 3 17 -2 7 -11 25 -9 45 3 7 5 16 5 20 -1 7 -10 21 -11 38
0 6 4 14 3 17 -2 7 -11 25 -9 45 3 7 5 16 5 20 -1 7 -10 21 -11 38 0 6 4 14 3
17 -2 7 -11 25 -9 45 3 7 5 16 5 20 -1 7 -10 21 -11 38 0 6 4 14 3 17 -2 7
-11 25 -9 45 3 8 5 16 4 20 -3 6 -8 15 -9 34 -2 15 6 27 7 27 2 0 -11 19 -9
39 3 7 5 16 5 20 -1 7 -10 21 -11 38 0 6 4 14 3 17 -2 7 -11 25 -9 45 3 7 5
16 5 20 -1 7 -10 21 -11 38 0 6 4 14 3 17 -2 7 -11 25 -9 45 3 8 5 16 4 20 -1
7 -12 40 -11 60 1 7 5 16 4 20 -1 7 -10 21 -11 38 0 6 4 14 3 17 -2 7 -11 25
-9 45 3 7 5 16 5 20 -1 7 -10 21 -11 38 0 6 4 14 3 17 -2 7 -10 31 -9 42 2 4
3 14 3 23 -1 20 -10 42 -9 60 2 7 5 16 5 20 -1 7 -10 21 -11 38 0 6 4 14 3 17
-2 7 -11 25 -9 45 3 7 5 16 5 20 -1 7 -10 21 -11 38 0 8 5 15 -1 19 -18 3 -14
11 -25 17 -25 6 0 8 -3 4 -6 -3 -4 0 -22 8 -40 8 -19 11 -34 7 -34 -4 0 1 -5
11 -11 9 -6 15 -14 12 -20 -4 -5 -2 -9 3 -9 6 0 26 -15 45 -32 53 -50 66 -59
87 -61 11 -1 20 -6 20 -11 0 -5 3 -7 6 -4 3 4 19 2 35 -2 16 -5 29 -5 29 -2 0
4 16 7 35 6 19 -1 35 2 35 7 0 4 7 6 15 3 8 -4 15 -1 15 6 0 6 5 8 10 5 6 -3
10 -1 10 4 0 6 7 11 15 11 8 0 15 5 15 11 0 5 5 7 10 4 6 -3 10 -1 10 5 0 15
26 41 34 33 3 -4 6 1 6 10 0 9 5 17 10 17 6 0 10 6 10 14 0 8 5 16 11 18 6 2
12 15 12 30 1 14 5 24 10 21 7 -4 11 11 8 33 -1 6 6 17 14 24 8 7 15 9 15 5 0
-4 7 -2 16 6 9 8 18 9 22 3 8 -11 22 -12 39 -1 6 4 14 3 17 -2 7 -11 25 -9 45
3 8 5 16 4 20 -3 6 -8 15 -9 34 -2 19 7 27 7 27 0 0 -7 7 -8 18 -4 9 4 22 8
27 9 6 1 16 5 23 9 6 5 12 6 12 3 0 -3 9 3 20 14 11 11 20 26 20 33 0 8 3 17
7 21 11 10 11 46 0 46 -5 0 -4 7 3 15 9 11 9 15 1 15 -9 0 -9 5 0 21 8 16 8
20 -1 14 -9 -6 -9 -2 -1 14 9 16 9 21 -1 21 -8 0 -9 3 -3 8 13 9 15 42 3 42
-6 0 -5 6 2 15 10 12 10 15 -1 15 -9 0 -10 3 -4 8 13 9 16 42 4 42 -6 0 -5 10
2 21 8 16 8 20 -1 14 -9 -6 -9 -2 -1 14 8 15 9 21 1 21 -6 0 -8 5 -3 13 11 18
12 37 2 37 -6 0 -5 9 2 21 8 16 8 20 -1 14 -9 -6 -9 -2 -1 14 9 16 9 21 -1 21
-8 0 -9 3 -3 8 13 9 16 42 4 42 -5 0 -4 11 1 25 5 13 5 27 1 30 -5 3 -5 21 -1
40 4 19 4 37 -1 40 -4 3 -4 17 1 30 7 18 6 25 -3 25 -7 0 -8 3 -2 8 13 9 16
42 4 42 -6 0 -5 10 2 21 8 16 8 20 -1 14 -9 -6 -9 -2 -1 14 8 15 9 21 1 21 -6
0 -8 5 -3 13 11 18 12 37 2 37 -6 0 -5 9 2 21 8 16 8 20 -1 14 -9 -6 -9 -2 -1
14 9 16 9 21 -1 21 -8 0 -9 3 -3 8 13 9 16 42 4 42 -5 0 -4 11 1 25 5 13 5 27
1 30 -5 3 -5 21 -1 40 4 19 4 37 -1 40 -4 3 -4 17 1 30 7 18 6 25 -3 25 -7 0
-8 3 -2 8 13 9 16 42 4 42 -6 0 -5 10 2 21 8 16 8 20 -1 14 -9 -6 -9 -2 -1 14
8 15 9 21 1 21 -6 0 -8 5 -3 13 11 18 12 37 2 37 -6 0 -5 9 2 21 8 16 8 20 -1
14 -9 -6 -9 -2 -1 14 9 16 9 21 -1 21 -8 0 -9 3 -3 8 13 9 15 42 3 42 -6 0 -5
6 2 15 10 12 10 15 -1 15 -9 0 -10 3 -4 8 13 9 16 42 4 42 -6 0 -5 10 2 21 8
16 8 20 -1 14 -9 -6 -9 -2 -1 14 8 15 9 21 1 21 -6 0 -8 5 -3 13 11 18 12 37
2 37 -6 0 -5 9 2 21 8 16 8 20 -1 14 -9 -6 -9 -2 -1 14 9 16 9 21 -1 21 -8 0
-9 3 -3 8 13 9 16 42 4 42 -5 0 -4 11 1 25 5 13 5 27 1 30 -5 3 -5 21 -1 40 4
19 4 37 -1 40 -4 3 -4 17 1 30 7 18 6 25 -3 25 -7 0 -8 3 -2 8 13 9 16 42 4
42 -6 0 -5 10 2 21 8 16 8 20 -1 14 -9 -6 -9 -2 -1 14 8 15 9 21 1 21 -6 0 -8
5 -3 13 11 18 12 37 2 37 -6 0 -6 8 -2 18 11 23 9 53 -5 78 -6 12 -9 24 -6 27
8 8 -50 45 -63 40 -7 -3 -13 1 -13 9 0 10 -3 9 -10 -2 -5 -8 -10 -10 -10 -5 0
6 -9 11 -20 11 -11 0 -20 -5 -20 -11 0 -5 -5 -3 -10 5 -5 8 -10 10 -10 4 0 -8
-13 -9 -40 -4 -22 4 -40 4 -40 1 0 -4 -27 -4 -60 -1 -33 3 -60 3 -60 0 0 -3
-27 -3 -60 0 -33 3 -60 3 -60 -1 0 -4 -13 -4 -30 1 -19 5 -30 5 -30 -1 0 -6
-8 -5 -20 1 -14 8 -20 8 -20 0 0 -8 -6 -8 -20 0 -14 8 -20 8 -20 0 0 -8 -6 -8
-20 0 -12 6 -20 7 -20 1 0 -6 -11 -6 -30 -1 -16 5 -30 5 -30 1 0 -4 -27 -4
-60 -1 -33 3 -60 3 -60 0 0 -3 -27 -3 -60 0 -33 3 -60 3 -60 -1 0 -4 -13 -4
-30 1 -19 5 -30 5 -30 -1 0 -6 -8 -5 -20 1 -14 8 -20 8 -20 0 0 -8 -6 -8 -20
0 -14 8 -20 8 -20 0 0 -8 -6 -8 -20 0 -14 8 -20 8 -20 0 0 -7 -6 -8 -19 0 -14
7 -21 6 -24 -3 -3 -8 -7 -6 -12 6 -5 11 -1 25 10 37 10 11 14 20 9 20 -5 0 -1
5 9 11 9 5 17 17 17 24 0 8 4 15 10 15 5 0 17 16 26 35 9 21 21 32 28 28 6 -3
8 -3 4 2 -4 4 6 27 22 51 17 23 30 46 30 51 0 4 12 19 25 32 14 12 23 27 20
31 -3 4 1 10 8 13 8 3 22 21 31 41 9 20 21 36 26 36 6 0 10 5 10 10 0 11 10
24 43 61 9 10 14 19 10 19 -5 1 2 9 14 19 12 10 20 21 16 24 -3 3 1 13 8 21
31 34 39 46 39 56 0 5 4 10 8 10 12 0 44 69 37 80 -3 5 -1 11 5 15 12 8 -10
53 -38 76 -21 18 -72 31 -72 18z m-2120 -1019 c0 5 13 5 30 0 17 -5 30 -5 30
0 0 5 13 5 30 0 17 -5 30 -5 30 0 0 5 13 5 30 0 17 -5 30 -5 30 0 0 5 13 5 30
0 17 -5 30 -5 30 0 0 5 13 5 30 0 17 -5 30 -5 30 0 0 5 13 5 30 0 17 -5 30 -5
30 0 0 5 13 5 30 0 17 -5 30 -5 30 0 0 5 13 5 30 0 17 -5 30 -5 30 0 0 5 13 5
30 0 17 -5 30 -5 30 0 0 5 13 5 30 0 17 -5 30 -5 30 0 0 5 13 5 30 0 17 -5 30
-5 30 0 0 5 13 5 30 0 17 -5 30 -5 30 0 0 5 13 5 30 0 17 -5 30 -5 30 0 0 5
13 5 30 0 17 -5 30 -5 30 0 0 5 13 5 30 0 17 -5 30 -5 30 0 0 5 13 5 30 0 17
-5 30 -5 30 0 0 5 13 5 30 0 17 -5 30 -5 30 0 0 5 13 5 30 0 17 -5 30 -5 30 0
0 5 13 5 30 0 17 -5 30 -5 30 0 0 5 13 5 30 0 17 -5 30 -5 30 0 0 5 13 5 30 0
17 -5 30 -5 30 0 0 5 13 5 30 0 17 -5 30 -5 30 0 0 5 13 5 30 0 17 -5 30 -5
30 0 0 5 13 5 30 0 17 -5 30 -5 30 0 0 5 13 5 30 0 17 -5 30 -5 30 0 0 5 13 5
30 0 17 -5 30 -5 30 0 0 5 13 5 30 0 17 -5 30 -5 30 0 0 5 13 5 30 0 17 -5 30
-5 30 0 0 5 13 5 30 0 17 -5 30 -5 30 0 0 5 13 5 30 0 19 -5 30 -5 30 1 0 6 8
5 20 -1 12 -6 20 -7 20 -1 0 6 11 6 30 1 17 -5 30 -5 30 0 0 5 13 5 30 0 17
-5 30 -5 30 0 0 5 13 5 30 0 17 -5 30 -5 30 0 0 5 13 5 30 0 17 -5 30 -5 30 0
0 5 13 5 30 0 17 -5 30 -5 30 0 0 5 13 5 30 0 17 -5 30 -5 30 0 0 5 13 5 30 0
17 -5 30 -5 30 0 0 5 13 5 30 0 17 -5 30 -5 30 0 0 5 13 5 30 0 17 -5 30 -5
30 0 0 5 13 5 30 0 17 -5 30 -6 30 -2 0 4 75 6 166 4 122 -2 170 -7 180 -16 7
-8 10 -16 7 -20 -11 -10 -11 -46 0 -46 5 0 5 -5 -1 -13 -7 -8 -7 -18 -2 -27 5
-8 6 -19 2 -25 -10 -16 -11 -34 -1 -41 5 -3 6 -11 2 -17 -11 -17 -10 -31 0
-38 6 -4 6 -13 1 -20 -12 -20 -14 -38 -3 -45 5 -3 5 -13 -1 -25 -8 -13 -7 -19
0 -19 6 0 8 -5 4 -12 -10 -16 -11 -68 -1 -68 5 0 5 -5 1 -12 -10 -16 -11 -68
-1 -68 5 0 5 -5 1 -12 -10 -16 -11 -68 -1 -68 5 0 5 -5 1 -12 -10 -16 -11 -68
-1 -68 5 0 5 -5 1 -12 -10 -16 -11 -68 -1 -68 5 0 5 -5 1 -12 -10 -16 -11 -68
-1 -68 5 0 5 -5 1 -12 -10 -16 -11 -68 -1 -68 5 0 5 -5 1 -12 -10 -16 -12 -58
-2 -58 4 0 3 -12 -3 -27 -7 -19 -6 -28 2 -34 7 -4 8 -12 3 -20 -12 -20 -14
-38 -3 -45 5 -3 6 -11 2 -17 -11 -17 -10 -31 0 -38 6 -4 6 -13 1 -20 -12 -20
-14 -38 -3 -45 5 -3 6 -11 2 -17 -11 -17 -10 -31 0 -38 6 -4 6 -13 1 -20 -12
-20 -14 -38 -3 -45 5 -3 6 -11 2 -17 -11 -17 -10 -31 0 -38 6 -4 6 -13 1 -20
-12 -20 -14 -38 -3 -45 5 -3 6 -11 2 -17 -11 -17 -10 -31 0 -38 6 -4 6 -13 1
-20 -12 -20 -14 -38 -3 -45 5 -3 5 -13 -1 -25 -8 -13 -7 -19 0 -19 6 0 8 -5 4
-12 -10 -16 -11 -68 -1 -68 5 0 5 -5 1 -12 -10 -16 -11 -68 -1 -68 5 0 5 -5 1
-12 -10 -16 -11 -68 -1 -68 5 0 5 -5 1 -12 -10 -16 -11 -68 -1 -68 5 0 5 -5 1
-12 -4 -6 -8 -28 -8 -47 -1 -20 -5 -36 -11 -36 -5 0 -16 -4 -22 -8 -8 -5 -13
-4 -13 3 0 8 -6 7 -21 -1 -16 -8 -20 -8 -14 1 6 9 2 9 -14 1 -11 -7 -21 -8
-21 -2 0 12 -33 9 -42 -4 -5 -6 -8 -5 -8 2 0 9 -7 10 -25 3 -13 -5 -27 -5 -30
-1 -3 5 -21 5 -40 1 -19 -4 -37 -5 -39 -1 -5 8 -71 6 -85 -4 -6 -3 -11 -2 -11
4 0 10 -19 9 -37 -2 -8 -5 -13 -3 -13 3 0 7 -6 8 -17 2 -10 -5 -27 -6 -38 -2
-11 4 -28 3 -37 -2 -11 -5 -18 -5 -18 1 0 10 -19 9 -37 -2 -8 -5 -13 -3 -13 3
0 7 -6 8 -17 2 -10 -5 -27 -6 -38 -2 -11 4 -28 3 -37 -2 -11 -5 -18 -5 -18 1
0 10 -19 9 -37 -2 -8 -5 -13 -3 -13 3 0 7 -6 8 -17 2 -10 -5 -27 -6 -38 -2
-11 4 -28 3 -37 -2 -11 -5 -18 -5 -18 1 0 10 -19 9 -37 -2 -8 -5 -13 -3 -13 3
0 7 -6 8 -17 2 -10 -5 -27 -6 -38 -2 -11 4 -28 3 -37 -2 -11 -5 -18 -5 -18 1
0 10 -19 9 -37 -2 -8 -5 -13 -3 -13 3 0 7 -6 8 -17 2 -10 -5 -27 -6 -38 -2
-11 4 -28 3 -37 -2 -11 -5 -18 -5 -18 1 0 10 -19 9 -37 -2 -8 -5 -13 -3 -13 3
0 7 -6 8 -17 2 -10 -5 -27 -6 -38 -2 -11 4 -28 3 -37 -2 -11 -5 -18 -5 -18 1
0 10 -19 9 -37 -2 -8 -5 -13 -3 -13 3 0 7 -6 8 -17 2 -10 -5 -27 -6 -38 -2
-11 4 -28 3 -37 -2 -11 -5 -18 -5 -18 1 0 10 -19 9 -37 -2 -8 -5 -13 -3 -13 3
0 6 -5 8 -11 5 -14 -10 -80 -12 -85 -4 -2 4 -20 3 -39 -1 -19 -4 -37 -4 -40 1
-3 4 -17 4 -30 -1 -14 -5 -25 -6 -25 -1 0 12 -33 9 -42 -4 -5 -6 -8 -5 -8 3 0
10 -5 10 -21 1 -16 -8 -20 -8 -14 1 6 9 2 9 -14 1 -12 -7 -21 -8 -21 -2 0 10
-19 9 -37 -2 -8 -5 -13 -3 -13 3 0 8 -6 7 -21 -1 -16 -8 -20 -8 -14 1 6 9 2 9
-14 1 -11 -7 -21 -8 -21 -2 0 12 -33 9 -42 -4 -5 -6 -8 -5 -8 2 0 9 -7 10 -25
3 -13 -5 -27 -5 -30 -1 -3 5 -21 5 -40 1 -19 -4 -37 -4 -40 1 -3 4 -17 4 -30
-1 -14 -5 -25 -6 -25 -1 0 12 -33 9 -42 -4 -5 -6 -8 -5 -8 3 0 10 -5 10 -21 1
-16 -8 -20 -8 -14 1 6 9 2 9 -14 1 -12 -7 -21 -8 -21 -2 0 10 -19 9 -37 -2 -8
-5 -13 -3 -13 3 0 8 -6 7 -21 -1 -16 -8 -20 -8 -14 1 6 9 2 9 -14 1 -11 -7
-21 -8 -21 -2 0 12 -33 9 -42 -4 -5 -6 -8 -5 -8 2 0 9 -7 10 -25 3 -13 -5 -27
-5 -30 -1 -3 5 -21 5 -40 1 -19 -4 -37 -4 -40 1 -3 4 -17 4 -30 -1 -14 -5 -25
-6 -25 -1 0 12 -33 9 -42 -4 -5 -6 -8 -5 -8 3 0 10 -5 10 -21 1 -16 -8 -20 -8
-14 1 6 9 2 9 -14 1 -16 -9 -21 -9 -21 1 0 9 -3 9 -11 1 -12 -12 -52 -5 -43 8
3 5 0 9 -7 9 -8 0 -8 4 1 15 10 12 10 15 -1 15 -9 0 -10 3 -4 8 13 9 16 42 4
42 -6 0 -5 10 2 21 8 16 8 20 -1 14 -9 -6 -9 -2 -1 14 8 15 9 21 1 21 -6 0 -8
5 -3 13 11 18 12 37 2 37 -6 0 -5 9 2 21 8 16 8 20 -1 14 -9 -6 -9 -2 -1 14 9
16 9 21 -1 21 -9 0 -9 3 0 12 13 13 17 32 4 24 -9 -5 -7 58 3 73 3 6 1 11 -5
11 -6 0 -8 5 -3 13 11 18 12 37 2 37 -6 0 -5 9 2 21 8 16 8 20 -1 14 -9 -6 -9
-2 -1 14 9 16 9 21 -1 21 -9 0 -9 3 0 12 13 13 17 32 4 24 -9 -5 -7 58 3 73 3
6 1 11 -5 11 -6 0 -8 5 -3 13 11 18 12 37 2 37 -6 0 -5 9 2 21 8 16 8 20 -1
14 -9 -6 -9 -2 -1 14 9 16 9 21 -1 21 -9 0 -9 3 0 12 13 13 17 32 4 24 -9 -5
-7 58 3 73 3 6 1 11 -5 11 -6 0 -8 5 -3 13 11 18 12 37 2 37 -6 0 -5 9 2 21 8
16 8 20 -1 14 -9 -6 -9 -2 -1 14 9 16 9 21 -1 21 -9 0 -9 3 0 12 13 13 17 32
4 24 -9 -5 -7 58 3 73 3 6 1 11 -5 11 -6 0 -8 5 -3 13 11 18 12 37 2 37 -6 0
-5 9 2 21 8 16 8 20 -1 14 -9 -6 -9 -2 -1 14 9 16 9 21 -1 21 -9 0 -9 3 0 12
13 13 17 32 4 24 -9 -5 -7 58 3 73 3 6 1 11 -5 11 -6 0 -8 5 -3 13 11 18 12
37 2 37 -6 0 -5 9 2 21 8 16 8 20 -1 14 -9 -6 -9 -2 -1 14 9 16 9 21 -1 21 -9
0 -9 3 0 12 13 13 17 32 4 24 -9 -5 -7 58 3 73 3 6 1 11 -5 11 -6 0 -8 5 -3
13 11 18 12 37 2 37 -6 0 -5 9 2 21 8 16 8 20 -1 14 -9 -6 -9 -2 -1 14 9 16 9
21 -1 21 -9 0 -9 3 0 12 13 13 17 32 4 24 -9 -5 -7 58 3 73 3 6 1 11 -5 11 -6
0 -8 5 -3 13 11 18 12 37 2 37 -6 0 -5 9 2 21 8 16 8 20 -1 14 -9 -6 -9 -2 -1
14 9 16 9 21 -1 21 -9 0 -9 3 0 12 14 14 16 32 2 23 -6 -4 -7 2 -1 17 7 19 16
23 50 23 22 0 41 3 41 7 0 4 14 3 30 -2 17 -5 30 -5 30 0z m293 -2234 c19 1
39 4 45 8 7 4 12 3 12 -3 0 -7 8 -7 24 -1 20 7 25 5 28 -14 5 -23 -16 -62 -30
-60 -16 3 -31 -9 -25 -20 4 -6 0 -6 -9 2 -11 9 -17 9 -20 2 -2 -7 -15 -1 -31
14 -16 14 -32 26 -36 26 -13 0 -19 49 -7 53 6 2 12 1 13 -2 2 -3 18 -6 36 -5z
m2007 5 c0 -10 32 -7 50 4 6 3 10 2 10 -3 0 -13 30 -11 30 2 0 6 6 2 12 -8 8
-15 8 -21 0 -24 -7 -2 -12 -9 -12 -17 0 -7 -8 -19 -17 -26 -14 -12 -16 -12 -9
1 4 9 2 8 -7 -2 -8 -10 -17 -15 -20 -11 -4 3 -7 1 -7 -4 0 -7 -16 -3 -39 8
-26 12 -42 29 -50 50 -10 29 -9 31 9 26 11 -3 23 -1 26 4 7 12 24 12 24 0z"/>
<path d="M1450 3356 c-7 -9 -15 -14 -19 -12 -3 2 -12 -2 -19 -10 -7 -8 -10
-14 -7 -14 3 0 -2 -11 -10 -24 -13 -19 -13 -25 -3 -30 10 -5 10 -7 1 -12 -9
-4 -10 -11 -3 -25 7 -12 7 -19 1 -19 -6 0 -6 -11 -1 -30 5 -16 5 -30 1 -30 -5
0 -5 -18 -1 -40 4 -22 4 -40 -1 -40 -4 0 -4 -13 1 -30 5 -19 5 -30 -1 -30 -6
0 -5 -8 1 -20 6 -11 7 -20 2 -20 -5 0 -6 -22 -2 -50 4 -27 4 -50 0 -50 -4 0
-4 -22 0 -50 4 -27 3 -50 -2 -50 -5 0 -4 -9 2 -20 6 -12 7 -20 1 -20 -6 0 -6
-11 -1 -30 5 -16 5 -30 1 -30 -5 0 -5 -18 -1 -40 4 -22 4 -40 -1 -40 -4 0 -4
-13 1 -30 5 -19 5 -30 -1 -30 -6 0 -5 -8 1 -20 6 -11 7 -20 2 -20 -5 0 -6 -22
-2 -50 4 -27 4 -50 0 -50 -4 0 -4 -22 0 -50 4 -27 3 -50 -2 -50 -5 0 -4 -9 2
-20 6 -12 7 -20 1 -20 -6 0 -6 -11 -1 -30 5 -16 5 -30 1 -30 -5 0 -5 -18 -1
-40 4 -22 4 -40 -1 -40 -4 0 -4 -13 1 -30 5 -19 5 -30 -1 -30 -6 0 -5 -8 1
-20 6 -11 7 -20 2 -20 -5 0 -6 -23 -2 -50 4 -28 4 -50 0 -50 -4 0 -4 -22 0
-50 4 -27 3 -50 -2 -50 -5 0 -4 -9 2 -20 6 -12 7 -20 1 -20 -6 0 -6 -11 -1
-30 6 -21 5 -30 -3 -30 -7 0 -6 -4 3 -10 9 -6 11 -10 3 -10 -19 0 -4 -30 32
-67 25 -25 35 -29 45 -20 10 10 11 9 5 -3 -8 -13 -6 -13 7 -2 10 8 19 9 22 3
7 -11 25 -9 45 3 7 5 16 5 20 -1 7 -10 21 -11 38 0 6 4 14 3 17 -2 7 -11 25
-9 45 3 7 5 16 5 20 -1 7 -10 21 -11 38 0 6 4 14 3 17 -2 7 -11 25 -9 45 3 7
5 16 5 20 -1 7 -10 21 -11 38 0 6 4 14 3 17 -2 7 -11 25 -9 45 3 7 5 16 5 20
-1 7 -10 21 -11 38 0 6 4 14 3 17 -2 7 -11 25 -9 45 3 7 5 16 5 20 -1 7 -10
21 -11 38 0 6 4 14 3 17 -2 7 -11 25 -9 45 3 7 5 16 5 20 -1 7 -10 21 -11 38
0 6 4 14 3 17 -2 7 -11 25 -9 45 3 7 5 16 5 20 -1 7 -10 21 -11 38 0 6 4 14 3
17 -2 7 -11 25 -9 45 3 8 5 16 4 21 -4 10 -17 15 -17 33 -2 9 8 18 9 21 3 6
-10 31 -9 42 1 3 4 13 4 22 0 22 -8 65 -7 80 2 7 4 12 4 12 -1 0 -10 52 -9 68
1 7 4 12 4 12 -1 0 -10 52 -9 68 1 7 4 12 4 12 -1 0 -10 52 -9 68 1 7 4 12 4
12 -1 0 -10 52 -9 68 1 7 4 12 4 12 -1 0 -10 52 -9 68 1 7 4 12 4 12 -1 0 -10
52 -9 68 1 7 4 12 4 12 -1 0 -10 52 -9 68 1 7 4 12 4 12 -1 0 -10 52 -9 68 1
7 4 12 4 12 -1 0 -10 52 -9 68 1 7 4 12 4 12 -1 0 -10 52 -9 68 1 7 4 12 4 12
-1 0 -10 52 -9 68 1 7 4 12 4 12 -1 0 -10 52 -9 68 1 7 4 12 4 12 -1 0 -10 52
-9 68 1 7 4 12 4 12 -1 0 -10 52 -9 68 1 7 4 12 4 12 -1 0 -10 52 -9 68 1 7 4
12 2 12 -4 0 -7 6 -8 19 0 12 6 22 6 25 1 7 -10 25 -9 41 1 6 4 17 3 25 -2 9
-5 19 -5 27 2 9 7 13 7 13 -2 0 -6 15 3 34 22 19 18 32 35 30 37 -2 2 1 10 7
18 9 10 8 13 -1 13 -9 0 -9 4 -2 13 5 6 6 21 2 32 -4 11 -3 28 2 38 6 11 5 17
-2 17 -6 0 -8 5 -3 13 11 18 12 37 2 37 -6 0 -7 5 -4 11 10 14 12 80 4 85 -4
2 -3 20 1 39 4 19 4 37 -1 40 -4 3 -4 17 1 30 7 18 6 25 -3 25 -7 0 -8 3 -2 8
13 9 16 42 4 42 -6 0 -5 10 2 21 8 16 8 20 -1 14 -9 -6 -9 -2 -1 14 8 15 9 21
1 21 -6 0 -8 5 -3 13 11 18 12 37 2 37 -6 0 -5 9 2 21 8 16 8 20 -1 14 -9 -6
-9 -2 -1 14 9 16 9 21 -1 21 -8 0 -9 3 -3 8 13 9 16 42 4 42 -5 0 -4 11 1 25
5 13 5 27 1 30 -5 3 -5 21 -1 40 4 19 5 37 1 39 -8 5 -6 71 4 85 3 6 1 11 -5
11 -6 0 -8 5 -3 13 11 18 12 37 2 37 -6 0 -6 7 -1 18 5 9 6 26 2 37 -4 11 -3
28 2 38 6 11 5 17 -2 17 -6 0 -8 5 -3 13 11 18 12 37 2 37 -6 0 -6 7 -1 18 5
9 6 26 2 37 -4 11 -3 28 2 38 6 11 5 17 -2 17 -6 0 -8 5 -3 13 11 18 12 37 2
37 -6 0 -6 7 -1 18 5 9 6 26 2 37 -4 11 -3 28 2 38 6 11 5 17 -2 17 -6 0 -8 5
-3 13 11 18 12 37 2 37 -6 0 -7 5 -4 11 10 15 12 80 3 85 -4 3 -3 16 2 29 6
17 6 25 -1 25 -5 0 -9 6 -8 13 4 30 -2 47 -16 47 -8 0 -15 5 -15 10 0 6 -7 10
-15 10 -8 0 -15 4 -15 9 0 10 -19 9 -35 -1 -6 -4 -17 -3 -25 2 -8 5 -22 5 -32
-1 -10 -5 -18 -6 -18 -1 0 11 -30 9 -49 -2 -8 -5 -16 -4 -21 4 -6 9 -12 9 -29
1 -11 -7 -21 -8 -21 -3 0 5 -7 9 -15 9 -8 0 -15 -4 -15 -8 0 -4 -13 -4 -28 1
-16 4 -36 4 -45 -2 -10 -5 -17 -5 -17 0 0 5 -7 9 -15 9 -8 0 -15 -4 -15 -8 0
-4 -13 -4 -28 1 -16 4 -36 4 -45 -2 -11 -6 -17 -5 -17 2 0 7 -6 8 -19 0 -14
-7 -22 -7 -26 0 -5 8 -11 8 -20 0 -9 -8 -15 -8 -20 0 -4 7 -12 7 -26 0 -11 -7
-19 -7 -19 -1 0 11 -19 9 -39 -3 -8 -5 -16 -4 -21 4 -6 9 -12 9 -29 1 -11 -7
-21 -8 -21 -3 0 5 -7 9 -15 9 -8 0 -15 -4 -15 -8 0 -4 -13 -4 -28 1 -16 4 -36
4 -45 -2 -10 -5 -17 -5 -17 0 0 5 -7 9 -15 9 -8 0 -15 -4 -15 -8 0 -4 -13 -4
-28 1 -16 4 -36 4 -45 -2 -11 -6 -17 -5 -17 2 0 7 -6 8 -19 0 -14 -7 -22 -7
-26 0 -5 8 -11 8 -20 0 -9 -8 -15 -8 -20 0 -4 7 -12 7 -26 0 -11 -7 -19 -7
-19 -1 0 11 -19 9 -39 -3 -8 -5 -16 -4 -21 4 -6 9 -12 9 -29 1 -11 -7 -21 -8
-21 -3 0 5 -7 9 -15 9 -8 0 -15 -4 -15 -8 0 -4 -13 -4 -28 1 -16 4 -36 4 -45
-2 -10 -5 -17 -5 -17 0 0 5 -7 9 -15 9 -8 0 -15 -4 -15 -8 0 -4 -13 -4 -28 1
-16 4 -36 4 -45 -2 -11 -6 -17 -5 -17 2 0 7 -6 8 -19 0 -14 -7 -22 -7 -26 0
-5 8 -11 8 -20 0 -9 -8 -15 -8 -20 0 -4 7 -12 7 -26 0 -11 -7 -19 -7 -19 -1 0
11 -19 9 -39 -3 -8 -5 -16 -4 -21 4 -6 9 -12 9 -29 1 -11 -7 -21 -8 -21 -3 0
5 -7 9 -15 9 -8 0 -15 -4 -15 -8 0 -4 -13 -4 -28 1 -16 4 -36 4 -45 -2 -10 -5
-17 -5 -17 0 0 5 -7 9 -15 9 -8 0 -15 -4 -15 -8 0 -4 -13 -4 -28 1 -16 4 -36
4 -45 -2 -11 -6 -17 -5 -17 2 0 7 -6 8 -19 0 -14 -7 -22 -7 -26 0 -5 8 -11 8
-20 0 -9 -8 -15 -8 -20 0 -4 7 -12 7 -26 0 -14 -8 -19 -7 -19 1 0 8 -4 8 -15
-1 -11 -9 -15 -9 -15 -1 0 8 -5 9 -19 1 -14 -7 -22 -7 -26 0 -5 8 -11 8 -20 0
-9 -8 -15 -8 -20 0 -4 7 -12 7 -26 0 -11 -7 -19 -7 -19 -1 0 11 -19 9 -39 -3
-8 -5 -16 -4 -21 4 -6 9 -12 9 -29 1 -11 -7 -21 -8 -21 -3 0 5 -7 9 -15 9 -8
0 -15 -4 -15 -8 0 -4 -13 -4 -28 1 -16 4 -36 4 -45 -2 -10 -5 -17 -5 -17 0 0
5 -7 9 -15 9 -8 0 -15 -4 -15 -8 0 -9 -33 -6 -41 4 -3 4 -12 1 -19 -7z m170
-187 c0 11 3 11 15 1 12 -10 15 -10 15 0 0 10 3 10 15 0 11 -9 15 -9 15 -1 0
9 5 9 20 1 15 -8 20 -8 20 2 0 9 3 9 10 -2 8 -12 10 -12 10 -1 0 11 3 11 15 1
9 -8 15 -8 15 -2 0 7 10 8 30 2 17 -5 30 -5 30 0 0 5 13 5 30 0 17 -5 30 -5
30 -1 0 5 18 5 40 1 22 -4 40 -4 40 1 0 4 14 4 30 -1 17 -5 30 -5 30 0 0 5 13
5 30 0 17 -5 30 -5 30 0 0 5 13 5 30 0 17 -5 30 -5 30 0 0 5 13 5 30 0 17 -5
30 -5 30 -1 0 5 18 5 40 1 22 -4 40 -4 40 1 0 4 14 4 30 -1 17 -5 30 -5 30 0
0 5 13 5 30 0 17 -5 30 -5 30 0 0 5 13 5 30 0 17 -5 30 -5 30 0 0 5 13 5 30 0
17 -5 30 -6 30 -2 0 4 85 5 190 2 105 -3 190 -2 190 2 0 4 14 3 30 -2 17 -5
30 -5 30 0 0 5 13 5 30 0 17 -5 30 -5 30 0 0 5 13 5 30 0 17 -5 30 -5 30 0 0
5 13 5 30 0 17 -5 30 -5 30 0 0 5 13 5 30 0 17 -5 30 -5 30 0 0 5 13 5 30 0
17 -5 30 -5 30 0 0 5 13 5 30 0 17 -5 30 -5 30 0 0 5 13 5 30 0 17 -5 30 -5
30 0 0 5 13 5 30 0 17 -5 30 -5 30 0 0 5 13 5 30 0 17 -5 30 -6 30 -2 0 11
334 2 344 -8 7 -7 6 -10 -1 -10 -8 0 -9 -9 -3 -30 5 -17 5 -30 0 -30 -5 0 -5
-13 0 -30 5 -17 5 -30 0 -30 -5 0 -5 -13 0 -30 5 -17 5 -30 0 -30 -5 0 -5 -13
0 -30 5 -16 5 -30 1 -30 -5 0 -5 -18 -1 -40 4 -22 4 -40 -1 -40 -4 0 -4 -13 1
-30 5 -17 5 -30 0 -30 -5 0 -5 -13 0 -30 5 -17 5 -30 0 -30 -5 0 -5 -13 0 -30
5 -17 5 -30 0 -30 -5 0 -5 -13 0 -30 5 -17 5 -30 0 -30 -5 0 -5 -13 0 -30 5
-17 5 -30 0 -30 -5 0 -5 -13 0 -30 5 -17 5 -30 0 -30 -5 0 -5 -13 0 -30 5 -17
5 -30 0 -30 -5 0 -5 -13 0 -30 5 -17 5 -30 0 -30 -5 0 -5 -13 0 -30 5 -17 5
-30 0 -30 -5 0 -5 -13 0 -30 5 -17 5 -30 0 -30 -5 0 -5 -13 0 -30 5 -17 5 -30
0 -30 -5 0 -5 -13 0 -30 5 -17 5 -30 0 -30 -5 0 -5 -13 0 -30 5 -17 5 -30 0
-30 -5 0 -5 -13 0 -30 5 -17 5 -30 0 -30 -5 0 -5 -13 0 -30 5 -17 5 -30 0 -30
-5 0 -5 -13 0 -30 5 -17 5 -30 0 -30 -5 0 -5 -13 0 -30 5 -19 5 -30 -1 -30 -6
0 -7 -5 -3 -12 5 -8 0 -9 -14 -6 -12 4 -22 2 -22 -3 0 -6 -8 -5 -20 1 -11 6
-20 7 -20 2 0 -5 -22 -6 -50 -2 -27 4 -50 4 -50 0 0 -4 -22 -4 -50 0 -27 4
-50 3 -50 -2 0 -5 -9 -4 -20 2 -14 8 -20 8 -20 0 0 -8 -6 -8 -20 0 -14 8 -20
8 -20 0 0 -8 -6 -8 -20 0 -11 6 -20 7 -20 2 0 -5 -22 -6 -50 -2 -27 4 -50 4
-50 0 0 -4 -22 -4 -50 0 -27 4 -50 3 -50 -2 0 -5 -9 -4 -20 2 -14 8 -20 8 -20
0 0 -8 -6 -8 -20 0 -14 8 -20 8 -20 0 0 -8 -6 -8 -20 0 -11 6 -20 7 -20 2 0
-5 -22 -6 -50 -2 -27 4 -50 4 -50 0 0 -4 -22 -4 -50 0 -27 4 -50 3 -50 -2 0
-5 -9 -4 -20 2 -14 8 -20 8 -20 0 0 -8 -6 -8 -20 0 -14 8 -20 8 -20 0 0 -8 -6
-8 -20 0 -11 6 -20 7 -20 2 0 -5 -22 -6 -50 -2 -27 4 -50 4 -50 0 0 -4 -22 -4
-50 0 -27 4 -50 3 -50 -2 0 -5 -9 -4 -20 2 -11 6 -20 7 -20 2 0 -5 -22 -6 -50
-2 -27 4 -50 4 -50 1 0 -3 -36 -4 -80 -1 -44 3 -80 3 -80 0 0 -3 -27 -3 -60 0
-33 3 -60 3 -60 -1 0 -3 -18 -3 -40 1 -22 4 -40 4 -40 -1 0 -4 -13 -4 -30 1
-19 5 -30 5 -30 -1 0 -6 -8 -5 -20 1 -11 6 -20 7 -20 2 0 -5 -22 -6 -50 -2
-27 4 -50 4 -50 0 0 -4 -22 -4 -50 0 -27 4 -50 3 -50 -2 0 -5 -9 -4 -20 2 -12
6 -20 7 -20 1 0 -6 -11 -6 -30 -1 -16 5 -30 5 -30 1 0 -5 -18 -5 -40 -1 -22 4
-40 4 -40 0 0 -4 -12 -5 -26 -2 -23 4 -25 8 -20 33 3 18 1 29 -5 29 -8 0 -8 4
-1 13 7 8 7 18 2 27 -5 8 -6 19 -2 25 11 17 11 35 1 41 -6 4 -6 10 0 17 14 18
14 29 1 37 -8 5 -9 13 -4 21 12 20 14 38 3 45 -6 4 -6 10 0 17 14 18 14 29 1
37 -8 5 -9 13 -4 21 12 20 14 38 3 45 -5 3 -5 13 1 25 8 13 7 19 0 19 -6 0 -8
5 -4 12 10 16 11 68 1 68 -5 0 -5 5 -1 12 10 16 11 68 1 68 -5 0 -5 5 -1 12
10 16 11 68 1 68 -5 0 -5 5 -1 12 10 16 12 58 2 58 -4 0 -3 12 3 27 7 19 6 28
-2 34 -7 4 -8 12 -3 20 12 20 14 38 3 45 -6 4 -6 10 0 17 14 18 14 29 1 37 -8
5 -9 13 -4 21 12 20 14 38 3 45 -5 3 -6 11 -2 17 11 17 10 31 0 38 -6 4 -6 13
-1 20 12 20 14 38 3 45 -6 4 -6 10 0 17 14 18 14 29 1 37 -8 5 -9 13 -4 21 12
20 14 38 3 45 -6 4 -6 10 0 17 14 18 14 29 0 38 -9 5 -10 11 -2 21 14 17 14
29 0 47 -10 12 -9 14 6 8 10 -4 17 -2 17 6 0 8 4 6 10 -3 8 -12 10 -12 10 -1z"/>
<path d="M3060 2925 c0 -6 -10 -21 -23 -35 -30 -34 -29 -86 4 -119 35 -36 71
-61 86 -61 7 0 13 -5 13 -11 0 -5 5 -7 10 -4 6 3 10 1 10 -5 0 -6 4 -9 8 -6 5
3 18 -3 29 -13 11 -11 39 -30 63 -43 70 -38 80 -45 75 -49 -2 -3 6 -6 18 -6
12 -1 27 -9 33 -17 6 -9 14 -13 17 -9 4 3 7 1 7 -5 0 -7 3 -11 8 -11 18 3 33
-2 28 -9 -3 -5 11 -14 30 -21 18 -7 34 -17 34 -22 0 -5 5 -9 11 -9 6 0 25 -10
42 -22 18 -13 27 -16 22 -7 -6 11 -5 12 5 2 9 -8 19 -9 32 -2 10 5 18 6 18 2
0 -4 5 0 11 10 6 9 14 15 20 12 5 -4 9 1 9 9 0 9 4 16 8 16 5 0 9 6 9 13 0 6
4 20 8 30 4 9 3 17 -2 17 -5 0 -9 9 -10 19 -2 23 -37 61 -56 61 -7 0 -23 9
-34 19 -12 11 -24 17 -27 14 -3 -4 -6 -2 -6 4 0 5 -18 18 -40 28 -22 10 -40
21 -40 25 0 5 -11 11 -25 14 -14 4 -23 11 -20 17 4 5 3 8 -2 7 -14 -4 -53 13
-53 23 0 5 -9 9 -19 9 -10 0 -22 7 -25 16 -3 8 -10 12 -16 9 -6 -3 -13 1 -16
9 -3 9 -15 16 -25 16 -10 0 -19 4 -19 8 0 5 -18 17 -40 27 -22 10 -40 22 -40
27 0 5 -4 6 -10 3 -5 -3 -10 -1 -10 5 0 6 -4 8 -10 5 -5 -3 -10 -1 -10 4 0 14
-57 14 -66 0 -4 -8 -9 -7 -15 2 -5 8 -9 9 -9 4z"/>
<path d="M2200 2876 c-14 -6 -28 -15 -31 -20 -4 -4 -12 -5 -18 -2 -6 4 -11 2
-11 -5 0 -7 -3 -9 -7 -6 -3 4 -12 -1 -20 -11 -8 -9 -12 -11 -8 -5 4 9 1 11 -9
7 -9 -3 -16 -10 -16 -16 0 -5 -4 -6 -10 -3 -5 3 -10 1 -10 -5 0 -6 -4 -8 -10
-5 -5 3 -10 1 -10 -6 0 -7 -3 -10 -6 -6 -4 3 -32 -7 -64 -23 -32 -16 -60 -26
-64 -23 -3 4 -6 1 -6 -6 0 -7 -4 -9 -10 -6 -5 3 -10 1 -10 -5 0 -6 -4 -9 -9
-5 -6 3 -14 -3 -20 -12 -6 -10 -11 -14 -11 -9 0 5 -7 3 -15 -4 -8 -7 -15 -10
-15 -6 0 3 -23 -8 -50 -25 -28 -17 -48 -35 -44 -40 3 -5 -1 -9 -8 -9 -9 0 -9
-3 2 -10 8 -5 10 -10 4 -10 -7 0 -9 -11 -6 -27 7 -36 27 -74 35 -66 4 3 7 2 7
-4 0 -16 75 -21 89 -6 6 7 19 9 28 6 11 -4 14 -3 9 5 -4 8 0 12 11 12 11 0 24
5 31 12 7 7 12 8 12 3 0 -4 10 0 22 11 14 13 19 14 14 4 -5 -9 -2 -8 7 2 8 10
17 15 20 11 4 -3 7 -1 7 6 0 7 5 9 10 6 6 -3 10 -2 10 2 0 5 10 9 22 10 11 1
25 8 29 15 5 7 9 9 9 5 0 -5 7 -1 16 7 8 9 20 14 25 11 5 -4 9 -1 9 4 0 6 3
10 8 9 4 -1 24 6 46 15 21 9 45 17 53 17 7 0 16 7 19 15 4 8 12 15 18 15 23 0
59 48 53 70 -3 11 -1 20 3 20 27 0 -28 75 -60 82 -8 2 -18 8 -22 13 -5 6 -8 4
-8 -5 0 -10 -3 -11 -8 -4 -5 8 -14 8 -32 0z"/>
<path d="M2242 2382 c-13 -2 -20 -8 -16 -14 5 -7 2 -9 -8 -5 -10 3 -20 -3 -28
-19 -8 -13 -17 -24 -21 -24 -5 0 -6 -6 -3 -14 3 -8 0 -17 -6 -21 -8 -5 -8 -10
0 -20 7 -8 9 -19 5 -25 -3 -5 -2 -10 2 -10 5 0 8 -13 7 -30 -1 -16 1 -30 5
-30 4 0 12 -20 20 -44 7 -24 21 -53 32 -65 11 -12 17 -21 14 -21 -3 0 7 -11
22 -25 44 -39 46 -40 81 -55 17 -8 32 -18 32 -22 0 -5 11 -8 25 -8 14 0 25 -3
25 -7 0 -10 82 -9 98 1 7 4 12 2 12 -3 0 -6 16 -2 35 9 24 13 35 16 35 7 1 -7
6 -5 14 6 7 9 17 17 22 17 4 0 23 15 42 33 31 30 34 31 46 15 7 -10 18 -18 25
-18 6 0 11 -4 11 -8 0 -10 85 -52 105 -52 8 0 15 -5 15 -11 0 -8 6 -7 17 2 15
12 16 12 8 -1 -7 -13 -6 -13 7 -2 10 8 19 9 22 3 7 -10 31 -9 42 2 12 12 26 8
18 -5 -6 -10 -5 -10 8 -1 8 7 18 10 21 6 4 -3 7 -1 7 6 0 7 5 9 10 6 6 -3 10
-1 10 5 0 6 4 9 9 5 5 -3 16 1 23 9 8 7 24 17 36 20 12 4 20 11 17 15 -2 4 7
14 20 21 14 7 25 19 25 27 0 7 9 21 19 30 11 9 18 20 15 25 -3 4 0 8 6 8 6 0
8 5 5 10 -3 6 -1 10 5 10 7 0 10 6 7 13 -2 6 3 17 12 24 12 10 13 12 2 13 -11
0 -11 3 -1 15 7 8 10 26 8 40 -3 14 -2 25 1 25 4 0 5 18 3 40 -2 22 -7 40 -11
40 -4 0 -13 11 -19 24 -8 18 -16 23 -31 19 -13 -3 -21 -1 -21 6 0 7 -5 9 -12
4 -7 -4 -18 -8 -24 -9 -27 -4 -63 -36 -57 -51 4 -10 2 -14 -4 -10 -6 4 -13 -2
-16 -13 -3 -11 -2 -20 2 -20 4 0 8 -7 8 -15 0 -8 -4 -15 -9 -15 -5 0 -7 -3 -4
-8 6 -11 -18 -63 -43 -91 -11 -13 -21 -20 -21 -16 0 5 -6 1 -13 -10 -8 -10
-19 -15 -25 -11 -7 4 -12 1 -12 -6 0 -9 -3 -9 -10 2 -9 13 -10 13 -10 0 0 -12
-2 -12 -9 -2 -4 7 -15 14 -24 16 -19 2 -63 46 -59 58 1 5 -2 8 -6 8 -4 0 -8
10 -9 22 -1 11 -6 24 -12 27 -6 4 -6 12 -1 21 5 8 4 22 -2 34 -6 12 -11 23
-11 26 0 3 -8 16 -18 29 -11 13 -19 20 -19 16 0 -4 -11 0 -25 9 -14 9 -25 12
-25 7 0 -6 -8 -8 -19 -6 -25 5 -79 -53 -76 -82 1 -13 -2 -23 -6 -23 -4 0 -6
-11 -3 -25 2 -14 0 -25 -5 -25 -6 0 -8 -6 -5 -13 10 -27 -83 -106 -106 -92 -6
3 -10 2 -10 -3 0 -6 -9 -8 -20 -5 -11 3 -20 9 -20 14 0 5 -7 9 -15 9 -8 0 -19
9 -25 19 -5 11 -17 26 -25 35 -9 8 -17 36 -18 61 -1 24 -5 45 -9 45 -5 0 -8
11 -8 24 0 16 -11 32 -30 46 -16 12 -30 18 -30 14 0 -3 -6 -2 -12 3 -7 5 -23
7 -36 5z"/>
</g>
</svg>
