<?xml version="1.0" standalone="no"?>
<!DOCTYPE svg PUBLIC "-//W3C//DTD SVG 20010904//EN"
 "http://www.w3.org/TR/2001/REC-SVG-20010904/DTD/svg10.dtd">
<svg version="1.0" xmlns="http://www.w3.org/2000/svg"
 width="480.000000pt" height="480.000000pt" viewBox="0 0 480.000000 480.000000"
 preserveAspectRatio="xMidYMid meet">
<metadata>
Created by potrace 1.11, written by Peter Selinger 2001-2013
</metadata>
<g transform="translate(0.000000,480.000000) scale(0.100000,-0.100000)"
fill="#000000" stroke="none">
<path d="M2384 3998 c-5 -7 -3 -8 7 -3 8 5 2 -4 -13 -20 -16 -15 -28 -32 -28
-37 0 -6 -9 -22 -20 -38 -11 -15 -17 -30 -13 -34 3 -3 0 -6 -7 -6 -7 0 -10 -3
-7 -7 4 -3 -3 -17 -15 -30 -12 -13 -18 -23 -15 -23 4 0 -1 -9 -11 -20 -9 -12
-15 -22 -12 -23 2 -1 -10 -23 -28 -49 -18 -26 -32 -54 -32 -62 0 -9 -4 -16
-10 -16 -5 0 -12 -11 -16 -25 -3 -14 -9 -25 -13 -25 -9 0 -45 -72 -43 -83 1
-4 -5 -10 -13 -13 -8 -3 -12 -10 -9 -15 3 -5 0 -9 -6 -9 -6 0 -8 -4 -5 -10 3
-5 1 -10 -5 -10 -6 0 -9 -4 -5 -9 3 -5 1 -12 -5 -16 -6 -4 -7 -11 -4 -17 4 -6
3 -8 -3 -5 -10 6 -60 -71 -55 -85 1 -5 -3 -8 -9 -8 -5 0 -8 -4 -5 -8 3 -5 -2
-18 -12 -28 -9 -11 -30 -44 -46 -74 -16 -30 -32 -57 -35 -60 -8 -6 -28 -52
-29 -64 0 -5 -5 -12 -10 -15 -5 -3 -24 -33 -42 -66 -18 -33 -37 -63 -42 -66
-5 -3 -9 -8 -7 -10 5 -9 -42 -89 -53 -89 -6 0 -8 -3 -5 -6 4 -4 -2 -19 -13
-34 -11 -15 -17 -30 -13 -34 3 -3 0 -6 -7 -6 -7 0 -10 -3 -7 -7 4 -3 2 -12 -4
-19 -15 -18 -5 -53 23 -84 13 -14 34 -41 48 -60 13 -19 33 -43 44 -52 10 -10
15 -18 10 -19 -5 0 0 -4 11 -8 14 -6 24 -2 36 13 18 24 33 57 31 69 -1 4 2 7
7 7 5 0 21 24 36 53 15 28 38 66 51 83 13 17 21 34 17 37 -3 4 -1 7 6 7 7 0 9
5 6 10 -3 6 -2 10 4 10 6 0 13 11 17 25 3 14 9 25 13 25 7 0 34 61 32 73 -1 4
6 10 14 13 8 3 12 10 9 15 -3 5 0 9 6 9 6 0 8 5 5 10 -3 6 -1 10 5 10 6 0 9 4
5 9 -3 5 -1 12 5 16 6 4 7 11 4 17 -4 6 -2 8 3 5 6 -4 18 9 27 28 9 19 21 37
26 40 6 4 8 11 5 16 -4 5 -1 9 5 9 6 0 9 4 6 8 -3 5 2 18 12 28 20 22 57 95
54 107 -1 4 5 10 13 13 8 3 12 10 9 15 -3 5 0 9 6 9 6 0 8 5 5 10 -3 6 -1 10
5 10 6 0 8 5 5 10 -3 6 1 13 9 16 9 3 13 10 10 15 -3 5 0 9 5 9 6 0 11 5 11
10 0 6 11 28 24 49 14 21 22 41 19 45 -3 3 2 8 11 12 9 3 14 10 11 14 -12 20
18 20 36 1 11 -12 16 -21 12 -21 -4 0 -3 -4 2 -8 15 -11 35 -50 35 -67 0 -9 5
-13 10 -10 6 3 10 -3 10 -13 0 -11 7 -25 15 -32 8 -7 12 -16 9 -21 -3 -5 0 -9
6 -9 6 0 9 -4 5 -10 -3 -5 3 -18 14 -29 11 -11 17 -22 14 -25 -4 -3 -1 -6 6
-6 7 0 9 -4 6 -10 -3 -5 -2 -10 4 -10 6 0 13 -11 17 -25 3 -14 10 -25 15 -25
5 0 9 -7 9 -15 0 -8 5 -15 11 -15 5 0 7 -4 4 -10 -3 -5 -1 -10 5 -10 6 0 8 -4
5 -10 -3 -5 -1 -10 5 -10 6 0 9 -4 6 -9 -3 -4 3 -19 14 -31 18 -21 22 -29 19
-46 0 -4 3 -10 9 -13 5 -3 21 -28 37 -56 16 -27 35 -59 44 -69 13 -16 14 -18
1 -11 -9 5 -8 0 4 -13 20 -23 40 -56 52 -82 19 -46 31 -68 52 -90 12 -14 20
-30 18 -37 -3 -6 2 -14 11 -17 9 -4 13 -9 10 -12 -3 -4 3 -15 14 -27 10 -11
19 -27 19 -34 0 -7 5 -13 11 -13 5 0 8 -4 5 -8 -3 -5 4 -16 15 -25 20 -18 41
-23 36 -9 -1 5 13 27 31 50 19 22 33 42 32 44 -1 2 14 21 33 42 20 22 34 43
31 48 -3 4 -1 8 4 8 5 0 7 11 4 25 -2 14 -8 25 -13 25 -5 0 -9 7 -9 15 0 8 -4
15 -10 15 -5 0 -9 3 -8 8 3 12 -25 62 -34 62 -5 0 -7 4 -4 9 3 5 0 14 -8 20
-7 6 -16 25 -20 41 -3 18 -12 30 -21 30 -8 0 -15 9 -15 20 0 11 -5 20 -11 20
-5 0 -7 5 -4 10 3 6 -1 13 -9 16 -9 3 -13 11 -10 16 4 6 2 13 -3 17 -6 3 -23
30 -39 60 -16 30 -34 61 -39 70 -6 9 -29 51 -53 93 -24 43 -47 80 -52 83 -5 3
-6 13 -3 22 4 11 3 14 -5 9 -7 -4 -12 -1 -12 8 0 9 -5 16 -11 16 -5 0 -7 5 -4
10 3 6 -1 13 -9 16 -9 3 -13 10 -10 16 3 5 -3 19 -14 31 -12 12 -22 27 -23 32
-4 22 -23 55 -31 55 -4 0 -8 9 -8 20 0 11 -4 20 -10 20 -5 0 -10 6 -10 13 0 7
-6 19 -12 26 -7 6 -13 15 -14 19 -1 15 -28 62 -34 62 -4 0 -13 15 -21 33 -7
17 -24 50 -38 72 -14 22 -27 47 -29 55 -2 8 -9 18 -15 22 -7 4 -7 8 -2 8 6 0
3 5 -5 10 -8 5 -15 13 -15 17 0 14 -46 83 -55 83 -5 0 -12 -5 -16 -12z"/>
<path d="M3785 3200 c-4 -6 -10 -8 -15 -5 -5 3 -13 -3 -19 -12 -7 -12 -10 -13
-11 -4 0 10 -3 11 -13 2 -8 -6 -17 -8 -20 -4 -4 3 -7 1 -7 -5 0 -7 -7 -12 -16
-12 -9 0 -23 -8 -31 -17 -8 -11 -11 -12 -7 -3 7 12 5 13 -8 3 -8 -7 -18 -10
-21 -6 -4 3 -7 1 -7 -6 0 -7 -4 -10 -9 -6 -5 3 -12 1 -15 -4 -3 -5 -22 -12
-41 -15 -20 -4 -33 -11 -30 -17 6 -8 0 -10 -44 -13 -8 -1 -16 -8 -18 -16 -4
-12 -3 -12 5 -1 7 9 11 10 17 2 4 -7 12 -8 18 -4 20 14 69 16 77 2 9 -13 -56
-119 -72 -119 -5 0 -6 -4 -3 -10 3 -5 1 -10 -5 -10 -6 0 -9 -4 -5 -9 3 -6 0
-13 -7 -18 -7 -4 -19 -20 -27 -35 -8 -15 -17 -25 -21 -23 -4 2 -13 -11 -20
-30 -7 -19 -17 -32 -22 -29 -4 3 -8 -1 -8 -9 0 -8 -9 -22 -20 -32 -11 -10 -18
-20 -16 -22 4 -5 -14 -30 -46 -64 -9 -9 -14 -20 -10 -23 3 -3 0 -6 -7 -6 -7 0
-10 -4 -7 -9 3 -5 -1 -11 -9 -15 -8 -3 -15 -10 -15 -16 0 -12 -46 -77 -70 -98
-13 -12 -13 -13 0 -7 10 4 9 2 -2 -8 -10 -8 -18 -19 -18 -25 0 -5 -7 -12 -15
-16 -9 -3 -12 -12 -8 -22 3 -10 2 -15 -3 -12 -10 6 -36 -17 -28 -25 2 -2 -2
-10 -11 -17 -8 -7 -15 -19 -15 -27 0 -8 -4 -11 -10 -8 -5 3 -10 0 -10 -8 0 -8
-9 -22 -20 -32 -11 -10 -18 -20 -16 -23 3 -2 0 -10 -7 -17 -21 -21 -62 -77
-59 -81 1 -2 -6 -13 -15 -23 -40 -44 -89 -122 -85 -134 1 -5 -1 -6 -5 -4 -10
6 -34 -19 -26 -27 4 -3 1 -6 -6 -6 -7 0 -9 -4 -6 -10 3 -5 1 -10 -6 -10 -7 0
-10 -3 -6 -6 3 -3 -5 -16 -18 -28 -13 -12 -25 -28 -27 -36 -2 -8 -15 -28 -30
-45 -16 -16 -28 -35 -28 -42 0 -6 -10 -19 -22 -27 -12 -9 -18 -16 -13 -16 6 0
1 -7 -9 -15 -11 -8 -17 -15 -13 -15 5 0 3 -6 -3 -13 -6 -6 -35 -46 -64 -87
-41 -59 -50 -78 -41 -87 7 -6 16 -8 21 -3 8 7 58 18 102 22 6 1 12 4 12 8 0 3
8 6 18 6 34 2 74 13 90 26 13 11 15 11 7 -2 -6 -12 -5 -13 6 -2 7 6 22 12 34
12 11 0 29 7 39 15 11 8 16 15 11 15 -5 0 1 9 13 20 12 11 25 32 28 45 3 14 9
25 13 25 9 0 35 51 33 63 -1 4 2 7 7 7 5 0 14 14 21 30 7 17 17 30 22 30 5 0
6 5 3 11 -4 6 2 17 14 25 12 8 21 24 21 35 0 10 5 19 12 19 6 0 9 3 5 6 -3 4
1 13 9 21 8 8 12 19 9 24 -4 5 -2 9 4 9 5 0 22 25 37 55 16 30 32 55 37 55 4
0 5 5 2 10 -3 6 -1 10 6 10 7 0 10 3 7 6 -5 5 46 92 72 122 6 6 8 12 4 12 -3
0 -1 7 6 15 7 8 10 15 7 15 -3 0 5 12 18 26 14 15 22 30 19 35 -3 5 0 9 5 9 6
0 11 7 11 15 0 8 5 15 10 15 6 0 10 5 10 11 0 6 9 23 20 39 11 15 17 30 13 34
-3 3 -1 6 6 6 7 0 9 5 6 10 -3 6 -1 10 6 10 7 0 10 3 6 6 -3 3 5 18 18 32 13
14 27 37 30 51 4 14 10 28 14 31 10 7 62 98 60 106 0 4 4 10 9 13 5 3 17 21
26 39 9 17 21 32 26 32 5 0 7 7 4 15 -4 8 -1 15 7 15 7 0 10 3 6 6 -3 3 10 28
29 55 19 27 31 49 27 49 -4 0 2 7 13 16 10 8 12 12 4 8 -13 -7 -13 -6 0 11 8
11 23 28 32 39 10 10 15 23 12 27 -2 4 0 10 6 14 10 6 55 86 72 128 8 18 3 23
-7 7z"/>
<path d="M1010 3184 c0 -8 3 -14 8 -14 4 0 18 -23 31 -50 14 -28 29 -50 34
-50 4 0 5 -4 2 -10 -3 -5 -1 -10 4 -10 6 0 10 -3 9 -7 -4 -11 35 -73 45 -73 4
0 5 -4 2 -10 -3 -5 -1 -10 4 -10 6 0 11 -3 10 -7 -3 -18 14 -52 22 -47 5 3 9
0 9 -6 0 -7 9 -25 21 -41 11 -16 17 -29 13 -29 -4 0 -1 -8 7 -17 8 -10 21 -30
29 -45 7 -16 17 -28 22 -28 5 0 7 -4 3 -9 -3 -5 1 -16 9 -24 8 -8 12 -17 9
-21 -3 -3 2 -8 11 -12 9 -3 14 -10 11 -14 -3 -4 2 -13 10 -20 8 -7 15 -18 15
-25 0 -7 7 -18 15 -25 8 -7 12 -16 9 -21 -3 -5 0 -9 5 -9 6 0 11 -7 11 -15 0
-8 5 -15 11 -15 5 0 8 -4 5 -9 -3 -5 1 -14 9 -21 8 -7 15 -19 15 -26 0 -8 5
-14 11 -14 5 0 7 -4 4 -10 -3 -5 -2 -10 3 -10 5 0 12 -8 16 -17 7 -23 28 -56
41 -65 6 -4 6 -8 1 -8 -5 0 0 -10 12 -23 12 -13 19 -27 15 -30 -3 -4 -1 -7 6
-7 7 0 10 -4 7 -8 -3 -5 4 -19 15 -30 11 -12 16 -22 12 -22 -4 0 -3 -4 2 -8 6
-4 21 -27 34 -52 14 -25 29 -48 35 -52 6 -4 7 -8 3 -8 -4 0 -3 -6 3 -12 16
-18 66 -105 86 -150 10 -21 21 -38 26 -38 4 0 8 -7 8 -15 0 -8 5 -15 11 -15 5
0 7 -4 4 -10 -3 -5 -3 -10 2 -10 4 0 22 -26 38 -58 17 -31 33 -58 38 -60 4 -2
7 -10 7 -18 0 -8 5 -14 11 -14 5 0 7 -4 4 -10 -3 -5 -1 -10 4 -10 6 0 11 -7
11 -15 0 -8 5 -15 11 -15 5 0 7 -4 4 -10 -3 -5 -1 -10 5 -10 6 0 9 -4 6 -9 -3
-5 2 -15 11 -22 10 -8 14 -9 10 -2 -5 7 4 6 23 -3 16 -9 34 -13 40 -9 5 3 10
2 10 -3 0 -5 19 -13 43 -17 74 -14 80 -15 93 -26 8 -7 14 -6 19 2 5 7 10 8 14
1 3 -6 18 -12 31 -14 14 -2 30 -6 35 -10 6 -3 15 0 22 7 8 9 7 16 -5 28 -21
19 -29 30 -67 87 -16 25 -33 47 -38 48 -4 2 -5 8 -1 13 3 5 0 9 -5 9 -6 0 -11
7 -11 16 0 8 -4 13 -9 10 -5 -3 -14 8 -21 24 -7 17 -16 30 -21 30 -4 0 -10 8
-14 19 -3 10 -14 29 -25 42 -11 13 -23 29 -28 34 -4 6 -29 42 -54 80 -71 106
-109 159 -122 167 -6 4 -7 8 -3 8 5 0 -10 23 -32 51 -23 29 -41 58 -41 65 0 8
-4 14 -8 14 -5 0 -23 23 -42 51 -18 28 -42 60 -54 73 -13 12 -21 27 -18 34 2
6 -3 15 -12 18 -9 3 -16 11 -16 16 0 6 -11 24 -25 40 -14 16 -22 35 -19 40 4
7 2 8 -4 4 -7 -4 -12 -1 -12 8 0 8 -9 17 -19 21 -11 3 -18 12 -15 19 3 7 -4
21 -16 31 -11 10 -20 24 -20 30 0 7 -7 16 -16 19 -8 3 -13 10 -10 15 3 5 -1
11 -9 15 -8 3 -15 12 -15 21 0 8 -5 15 -11 15 -5 0 -7 5 -4 10 3 6 -1 10 -10
10 -9 0 -14 4 -11 9 3 5 -5 20 -19 32 -13 13 -25 30 -25 37 0 6 -5 12 -11 12
-5 0 -8 4 -5 9 3 5 -1 11 -9 15 -8 3 -15 12 -15 21 0 8 -4 15 -10 15 -5 0 -10
7 -10 15 0 8 -4 15 -8 15 -5 0 -18 18 -31 40 -12 22 -26 40 -30 40 -5 0 -8 10
-7 22 1 19 8 23 39 25 20 2 37 0 37 -5 0 -4 10 -8 23 -9 12 0 16 1 9 4 -6 3
-9 10 -6 15 4 7 2 8 -4 4 -7 -4 -12 -2 -12 4 0 6 -4 9 -9 5 -5 -3 -12 -1 -16
5 -4 6 -11 8 -16 5 -5 -4 -9 -1 -9 5 0 6 -4 9 -9 5 -5 -3 -12 -1 -16 5 -4 6
-11 8 -16 5 -5 -4 -9 -1 -9 6 0 7 -3 9 -6 6 -4 -3 -16 -1 -28 5 -11 7 -24 11
-28 10 -5 -1 -8 3 -8 8 0 6 -5 10 -11 10 -5 0 -7 -6 -3 -12 4 -7 -4 -3 -18 10
-13 12 -28 19 -31 15 -4 -3 -7 -1 -7 6 0 7 -4 9 -10 6 -5 -3 -16 -3 -22 2 -22
13 -38 12 -38 -3z"/>
<path d="M1427 2325 c-10 -11 -17 -23 -17 -28 0 -4 -5 -14 -12 -23 -7 -8 -17
-20 -23 -27 -5 -7 -11 -20 -13 -30 -2 -10 -11 -27 -20 -38 -9 -11 -17 -23 -17
-28 0 -4 -8 -15 -17 -25 -10 -10 -18 -22 -18 -28 0 -5 -9 -22 -19 -37 -11 -15
-23 -39 -26 -54 -4 -15 -11 -24 -16 -22 -5 3 -11 -6 -15 -20 -3 -14 -10 -25
-16 -25 -5 0 -6 -4 -3 -10 3 -5 2 -10 -3 -10 -8 0 -36 -50 -32 -59 1 -2 -2 -7
-7 -10 -10 -8 -28 -35 -55 -88 -12 -24 -26 -43 -31 -43 -4 0 -5 -4 -2 -10 3
-5 1 -10 -6 -10 -7 0 -10 -3 -6 -6 3 -4 -6 -22 -20 -41 -25 -33 -25 -35 -8
-51 11 -11 15 -12 10 -3 -6 11 -4 13 8 8 10 -4 17 -1 17 5 0 6 3 8 7 5 3 -4
12 -2 20 4 7 6 13 8 13 4 0 -4 7 -2 15 5 8 7 15 9 15 5 0 -5 9 0 21 11 12 10
22 17 23 15 0 -2 21 3 46 10 25 7 50 13 56 14 6 0 18 5 25 11 15 12 68 28 82
26 4 -1 7 2 7 8 0 6 3 9 8 9 4 -1 10 0 15 1 12 4 26 7 38 9 5 0 7 6 3 12 -4 8
1 9 17 5 13 -3 18 -3 11 0 -6 3 -10 9 -8 13 3 4 -5 7 -17 6 -37 -4 -49 14 -27
38 11 11 20 27 20 34 0 7 5 13 10 13 6 0 10 6 10 14 0 7 9 25 20 38 10 14 16
28 13 32 -3 3 -1 6 6 6 7 0 9 5 6 10 -3 6 -2 10 3 10 5 0 17 16 26 35 9 19 21
37 26 40 6 4 8 11 5 16 -4 5 -2 9 4 9 5 0 8 9 6 20 -5 26 -37 80 -47 80 -4 0
-8 8 -8 18 0 10 -8 27 -18 38 -10 10 -25 35 -35 54 -9 19 -17 31 -17 25 -1 -5
-5 -1 -9 10 -8 19 -8 19 -24 0z"/>
<path d="M3352 2333 c-6 -3 -10 -9 -6 -14 3 -5 1 -9 -4 -9 -5 0 -24 -27 -41
-60 -18 -33 -37 -60 -42 -60 -6 0 -8 -4 -5 -8 3 -5 -6 -25 -20 -45 -21 -32
-23 -40 -12 -59 7 -12 20 -28 28 -35 8 -7 11 -13 7 -13 -4 0 6 -20 23 -45 17
-25 29 -45 26 -45 -3 0 5 -16 19 -35 13 -20 30 -49 37 -65 7 -17 16 -30 20
-30 4 0 5 -6 2 -14 -3 -9 -18 -13 -39 -11 -23 1 -32 -2 -28 -11 2 -7 12 -10
20 -7 10 4 14 2 10 -4 -6 -10 75 -39 96 -35 4 1 7 -2 7 -8 0 -5 9 -10 20 -10
11 0 20 -5 20 -12 0 -6 3 -8 7 -5 3 4 12 2 19 -3 6 -6 16 -10 20 -9 11 3 40
-7 77 -26 15 -8 25 -10 22 -5 -3 6 10 1 29 -11 19 -11 40 -18 46 -14 5 3 10 1
10 -6 0 -7 3 -9 6 -6 4 3 15 2 24 -3 27 -14 46 12 25 34 -9 9 -14 16 -10 16 4
0 -1 7 -9 16 -9 8 -14 19 -11 23 2 5 -5 17 -15 29 -11 12 -20 26 -20 32 0 5
-5 10 -11 10 -5 0 -7 5 -4 10 3 6 1 10 -5 10 -6 0 -8 5 -5 10 3 6 2 10 -4 10
-9 0 -20 22 -22 45 0 6 -7 14 -15 18 -8 4 -14 15 -14 22 0 8 -4 15 -9 15 -10
0 -37 60 -33 73 1 5 -2 6 -8 2 -5 -3 -10 1 -10 9 0 9 -5 16 -11 16 -5 0 -7 5
-4 10 3 6 2 10 -4 10 -5 0 -13 9 -16 21 -4 12 -18 37 -31 57 -13 19 -22 37
-19 40 3 3 -4 12 -15 19 -11 8 -18 19 -15 24 4 5 2 9 -4 9 -6 0 -8 8 -4 18 3
9 3 14 -2 10 -7 -7 -15 4 -52 74 -17 32 -23 37 -41 31z"/>
<path d="M3780 1599 c0 -5 5 -7 10 -4 6 3 10 8 10 11 0 2 -4 4 -10 4 -5 0 -10
-5 -10 -11z"/>
<path d="M1984 1518 c-3 -5 0 -16 8 -25 7 -9 12 -18 11 -19 -4 -9 10 -44 18
-44 5 0 9 -9 9 -19 0 -11 5 -23 12 -27 7 -5 8 -3 3 5 -4 8 4 6 18 -4 15 -9 32
-13 38 -9 8 5 9 3 4 -6 -6 -10 -4 -12 8 -7 10 3 17 2 17 -4 0 -6 9 -8 20 -4
12 4 20 2 20 -5 0 -6 5 -8 10 -5 6 3 10 2 10 -2 0 -5 8 -9 18 -10 55 -4 82
-22 82 -54 0 -16 4 -29 9 -29 6 0 8 -9 6 -20 -2 -11 2 -20 8 -20 8 0 8 -3 -2
-9 -9 -6 -10 -11 -3 -15 6 -4 9 -13 5 -21 -3 -8 0 -15 7 -15 7 0 10 -7 6 -15
-3 -8 0 -15 7 -15 8 0 7 -3 -2 -9 -12 -8 -12 -12 -2 -25 8 -9 11 -16 8 -16 -3
0 1 -16 9 -35 8 -19 11 -35 8 -35 -4 0 -2 -6 3 -12 6 -7 9 -21 8 -30 -2 -10 2
-18 8 -18 8 0 7 -3 -2 -9 -8 -6 -10 -11 -3 -15 6 -4 14 -27 18 -51 3 -25 10
-45 15 -45 5 0 9 3 10 8 0 4 3 16 6 27 2 11 5 30 6 43 0 12 5 22 10 22 4 0 5
5 2 10 -3 6 0 10 7 10 10 0 10 2 -1 9 -9 6 -10 11 -2 15 6 4 9 12 5 17 -3 5 0
16 6 24 6 8 8 20 4 26 -4 8 -3 9 4 5 7 -4 12 -2 12 3 0 6 -5 11 -12 11 -6 0
-3 9 7 20 14 15 15 20 4 20 -11 0 -11 2 1 10 8 5 11 10 7 10 -4 0 -3 10 4 21
7 15 8 19 0 15 -7 -5 -9 -1 -5 8 3 9 9 16 13 16 3 0 7 15 9 33 4 57 6 67 14
67 4 0 5 6 2 13 -3 8 1 18 8 24 18 14 119 48 141 47 9 -1 17 2 17 6 0 4 6 7
14 7 28 0 77 26 72 39 -3 7 2 15 10 18 8 3 14 12 14 19 0 8 7 20 15 27 8 7 12
16 9 21 -3 5 -1 9 4 9 5 0 9 7 9 15 0 15 -22 16 -44 2 -7 -5 -13 -6 -13 -3 0
3 -11 1 -25 -4 -23 -9 -56 -17 -95 -24 -16 -3 -39 -11 -78 -27 -17 -6 -21 -6
-16 2 4 7 -3 6 -17 -2 -13 -7 -28 -12 -33 -11 -4 2 -14 -3 -22 -9 -11 -9 -14
-8 -14 2 0 11 -2 11 -10 -1 -5 -8 -10 -12 -10 -8 0 4 -12 0 -27 -7 -21 -11
-29 -12 -35 -2 -4 7 -8 8 -8 3 0 -6 -5 -5 -11 1 -6 6 -18 9 -25 6 -8 -3 -14
-1 -14 4 0 10 -7 11 -55 14 -14 1 -25 5 -25 9 0 5 -13 7 -29 6 -17 -1 -28 1
-25 5 2 4 -4 8 -13 7 -10 0 -32 5 -50 10 -17 6 -34 8 -37 4 -3 -3 -6 0 -6 7 0
7 -3 10 -7 8 -5 -3 -19 0 -33 6 -34 13 -60 15 -66 5z"/>
<path d="M1587 1452 c-16 -3 -18 -12 -15 -63 1 -32 0 -59 -3 -59 -4 0 -3 -18
1 -40 4 -22 4 -40 1 -40 -4 0 -4 -27 -1 -60 3 -33 3 -60 0 -60 -9 0 1 -124 11
-134 6 -6 9 -5 9 2 0 10 5 10 20 2 15 -8 20 -8 20 1 0 7 5 8 13 3 11 -8 32
-10 47 -4 15 6 50 6 50 0 0 -4 7 -7 15 -7 8 0 15 5 15 10 0 5 5 5 13 -1 7 -6
18 -7 27 -2 7 4 24 4 37 -1 15 -6 23 -5 23 2 0 7 5 8 13 3 11 -8 32 -10 47 -4
16 6 50 5 50 -1 0 -5 12 -3 26 3 15 7 21 14 15 16 -6 2 -21 21 -33 43 -12 21
-28 40 -35 40 -7 1 -19 2 -25 3 -7 1 -19 -2 -25 -7 -9 -6 -13 -5 -13 4 0 11
-2 11 -10 -1 -6 -9 -10 -10 -10 -3 0 11 -30 10 -49 -1 -5 -4 -11 0 -14 6 -3
10 -7 10 -20 -1 -14 -11 -17 -11 -17 0 0 11 -2 11 -10 -1 -5 -8 -10 -10 -10
-3 0 12 -24 12 -36 0 -12 -12 -45 35 -34 48 5 6 7 15 3 18 -3 4 1 7 11 7 10 0
14 5 10 12 -5 7 -3 8 7 2 16 -10 139 -22 139 -14 0 3 27 3 60 0 37 -4 61 -2
63 5 5 15 -4 45 -14 45 -5 0 -9 7 -9 15 0 8 -5 15 -11 15 -5 0 -8 3 -6 8 3 4
-1 13 -9 20 -10 9 -14 9 -14 1 0 -8 -4 -9 -13 0 -8 6 -16 8 -20 5 -9 -9 -68
-11 -73 -2 -3 5 -10 5 -17 1 -15 -9 -57 -10 -63 -1 -3 4 -10 5 -18 2 -7 -3
-17 6 -24 20 -17 37 2 45 101 43 53 -1 87 2 87 8 0 6 5 3 10 -5 5 -8 10 -10
10 -5 0 6 23 9 54 7 61 -4 62 -2 31 60 -17 35 -45 58 -45 38 0 -5 -13 -5 -30
0 -17 5 -30 5 -30 0 0 -5 -13 -5 -30 0 -19 5 -32 5 -36 -2 -4 -6 -10 -5 -15 3
-7 12 -9 12 -9 0 0 -11 -3 -11 -15 -1 -9 8 -15 8 -15 2 0 -7 -10 -8 -30 -2
-20 6 -30 5 -30 -2 0 -6 -6 -6 -15 2 -12 10 -15 10 -15 0 0 -10 -3 -10 -14 -1
-11 9 -16 9 -21 0 -4 -6 -10 -7 -14 -2 -3 5 -14 7 -24 5z"/>
<path d="M2852 1444 c-12 -8 -22 -21 -22 -28 0 -8 -7 -19 -15 -26 -9 -7 -13
-15 -11 -18 3 -2 -4 -16 -15 -31 -12 -15 -16 -27 -10 -29 6 -2 8 -9 4 -15 -11
-18 -11 -47 0 -47 5 0 4 -7 -4 -16 -7 -9 -9 -18 -3 -22 10 -8 15 -42 5 -42 -3
0 -6 -18 -6 -40 0 -22 4 -40 9 -40 5 0 2 -7 -5 -17 -11 -13 -11 -17 -1 -20 6
-3 12 -9 12 -14 0 -6 -4 -7 -10 -4 -13 8 0 -28 14 -37 5 -4 15 -4 20 0 15 9
46 10 46 2 0 -4 7 -7 15 -7 8 0 15 5 15 10 0 5 5 5 13 -1 7 -6 18 -7 27 -2 7
4 24 4 37 -1 15 -6 23 -5 23 2 0 7 5 8 13 3 11 -8 32 -10 47 -4 15 6 50 6 50
0 0 -4 7 -7 15 -7 8 0 15 5 15 10 0 5 5 5 13 -1 8 -7 18 -7 27 -2 8 5 19 6 24
2 20 -12 47 -9 42 5 -3 7 -2 13 2 13 4 0 8 9 8 20 0 11 -3 20 -6 20 -9 0 -6
32 4 49 5 8 3 17 -5 22 -8 5 -9 9 -4 9 6 0 11 9 11 20 0 11 -4 20 -8 20 -5 0
-4 10 3 21 8 16 8 20 -1 14 -9 -6 -9 -3 -1 12 7 14 7 23 -1 31 -8 8 -8 12 -2
12 6 0 11 7 11 15 0 8 -3 15 -7 15 -9 0 -6 32 4 49 5 8 3 17 -5 22 -8 5 -9 9
-4 9 6 0 11 9 11 20 0 11 -4 20 -8 20 -4 0 -5 6 -2 14 4 10 -5 15 -30 18 -20
2 -36 1 -36 -3 0 -4 -13 -4 -30 1 -17 5 -30 5 -30 0 0 -5 -13 -5 -30 0 -18 5
-30 5 -30 0 0 -6 -10 -6 -25 0 -18 7 -25 6 -25 -3 0 -8 -4 -7 -10 3 -8 12 -10
12 -10 1 0 -11 -3 -11 -15 -1 -9 8 -15 8 -15 2 0 -7 -10 -8 -30 -2 -18 5 -30
5 -30 -1 0 -5 -5 -9 -11 -9 -5 0 -7 5 -4 10 9 14 3 13 -23 -6z m198 -94 c0 12
72 -7 81 -22 5 -7 5 -14 1 -16 -4 -1 -5 -29 -2 -62 3 -33 3 -60 0 -60 -3 0 -5
-19 -5 -42 0 -31 -4 -43 -15 -43 -8 0 -21 -4 -27 -8 -7 -5 -13 -4 -13 1 0 10
-30 9 -48 -2 -7 -4 -12 -2 -12 6 0 9 -3 9 -10 -2 -6 -9 -10 -10 -10 -3 0 12
-30 10 -50 -2 -6 -3 -10 -1 -10 5 0 7 -8 9 -19 5 -25 -8 -44 23 -30 48 7 12 6
17 -2 17 -9 0 -9 3 0 14 8 10 9 16 1 21 -7 4 -7 12 0 26 8 14 7 19 -1 19 -7 0
-8 4 -2 13 5 6 9 19 8 27 -2 27 45 62 77 58 15 -3 28 -1 28 3 0 4 14 4 30 -1
17 -5 30 -5 30 0z"/>
</g>
</svg>
