<?xml version="1.0" standalone="no"?>
<!DOCTYPE svg PUBLIC "-//W3C//DTD SVG 20010904//EN"
 "http://www.w3.org/TR/2001/REC-SVG-20010904/DTD/svg10.dtd">
<svg version="1.0" xmlns="http://www.w3.org/2000/svg"
 width="280.000000pt" height="280.000000pt" viewBox="0 0 280.000000 280.000000"
 preserveAspectRatio="xMidYMid meet">
<metadata>
Created by potrace 1.11, written by Peter Selinger 2001-2013
</metadata>
<g transform="translate(0.000000,280.000000) scale(0.100000,-0.100000)"
fill="#000000" stroke="none">
<path d="M2588 2386 c-13 -6 -35 -13 -49 -14 -14 -1 -38 -8 -54 -16 -15 -8
-33 -12 -40 -10 -7 3 -16 1 -20 -5 -3 -6 -16 -11 -29 -11 -12 0 -26 -4 -32
-10 -5 -5 -25 -11 -44 -13 -19 -2 -36 -9 -38 -15 -1 -5 -12 -8 -22 -5 -11 3
-20 0 -20 -6 0 -5 -7 -8 -15 -5 -8 4 -15 1 -15 -6 0 -6 -10 -11 -22 -10 -31 3
-68 -10 -68 -22 0 -6 -7 -5 -15 2 -11 9 -15 9 -15 1 0 -7 -4 -9 -10 -6 -5 3
-10 1 -10 -4 0 -6 -3 -10 -7 -9 -18 4 -73 -14 -73 -25 0 -8 -3 -8 -11 0 -8 8
-19 7 -39 -4 -16 -8 -39 -16 -52 -19 -13 -3 -27 -6 -33 -7 -5 -2 -15 -6 -21
-9 -12 -8 -60 -19 -86 -21 -10 -1 -18 -5 -18 -10 0 -5 -7 -7 -15 -3 -8 3 -15
0 -15 -6 0 -6 -3 -8 -6 -5 -4 3 -16 1 -28 -6 -20 -11 -28 -13 -71 -20 -11 -2
-30 -9 -42 -15 -13 -7 -23 -9 -23 -5 0 4 -5 1 -10 -7 -7 -10 -10 -11 -10 -2 0
8 -5 9 -17 3 -48 -24 -119 -46 -135 -43 -5 1 -8 -2 -8 -7 0 -5 -8 -8 -17 -6
-10 1 -22 -1 -28 -5 -5 -3 -30 -12 -55 -19 -25 -7 -51 -18 -59 -25 -12 -9 -13
-8 -6 4 8 13 6 13 -8 2 -9 -8 -20 -11 -26 -8 -5 3 -11 1 -13 -5 -2 -7 -19 -13
-38 -15 -18 -3 -39 -9 -46 -15 -8 -6 -21 -9 -29 -5 -8 3 -15 1 -15 -5 0 -6 -6
-9 -12 -6 -7 2 -19 -3 -26 -12 -8 -9 -11 -10 -7 -3 3 6 1 12 -4 12 -6 0 -11
-5 -11 -12 0 -6 -3 -9 -6 -6 -3 4 -21 0 -40 -8 -19 -8 -34 -11 -34 -8 0 4 -7
1 -15 -6 -8 -6 -19 -9 -25 -5 -5 3 -10 1 -10 -6 0 -7 -3 -9 -7 -6 -3 4 -12 2
-20 -4 -10 -9 -13 -8 -13 2 -1 9 -4 8 -11 -4 -8 -13 -18 -17 -35 -13 -16 4
-26 2 -30 -7 -3 -8 -17 -13 -35 -12 -16 1 -27 -1 -24 -4 8 -7 -76 -31 -87 -25
-4 3 -8 0 -8 -6 0 -7 -7 -10 -15 -6 -8 3 -15 1 -15 -5 0 -6 -7 -9 -15 -5 -8 3
-15 1 -15 -5 0 -6 -6 -9 -14 -6 -8 3 -32 -2 -53 -13 -21 -10 -41 -16 -45 -13
-5 2 -8 0 -8 -6 0 -5 -9 -8 -20 -6 -11 2 -20 -1 -20 -7 0 -6 -3 -8 -7 -5 -3 4
-17 0 -31 -9 -13 -9 -21 -11 -17 -4 6 9 3 9 -13 1 -12 -6 -25 -10 -29 -10 -9
3 -60 -16 -87 -32 -13 -8 -16 -7 -11 1 5 7 -1 7 -16 -2 -29 -17 -53 -38 -42
-38 4 0 2 -4 -5 -9 -11 -6 -8 -13 12 -29 14 -11 26 -23 26 -27 0 -11 44 -44
58 -45 7 0 10 -4 7 -10 -3 -5 2 -10 11 -10 10 0 15 -3 12 -6 -3 -3 15 -24 40
-47 25 -23 56 -52 68 -64 13 -13 28 -23 34 -23 5 0 10 -7 10 -15 0 -7 6 -18
14 -22 8 -4 49 -39 91 -78 43 -38 82 -71 86 -73 5 -2 9 -8 9 -14 0 -6 8 -18
18 -27 23 -22 41 -60 44 -96 2 -16 6 -32 9 -35 4 -3 9 -18 10 -35 2 -16 7 -32
11 -35 4 -3 8 -20 10 -38 1 -18 6 -32 11 -32 5 0 7 -7 3 -15 -3 -8 0 -15 7
-15 8 0 8 -3 -2 -9 -9 -6 -10 -11 -2 -15 6 -4 9 -12 6 -17 -4 -5 -1 -9 5 -9 6
0 8 -4 5 -10 -3 -5 -2 -10 3 -10 6 0 8 -9 5 -20 -3 -12 0 -20 7 -20 7 0 10 -7
6 -16 -4 -9 0 -27 9 -40 11 -17 12 -24 2 -27 -9 -4 -9 -6 1 -6 7 -1 11 -5 8
-10 -3 -5 1 -14 8 -21 12 -9 20 -5 43 21 40 46 65 69 75 69 5 0 6 5 3 10 -3 6
-2 10 2 10 5 0 20 11 35 25 33 31 46 29 76 -10 12 -16 29 -33 37 -38 8 -4 15
-15 15 -23 0 -8 5 -12 11 -9 6 4 13 -1 16 -11 2 -11 21 -32 41 -49 21 -16 62
-57 92 -91 30 -34 61 -63 68 -63 6 -1 12 -8 12 -17 0 -8 5 -12 10 -9 6 3 10 1
10 -4 0 -6 7 -11 16 -11 8 0 12 -5 9 -10 -4 -6 -1 -9 6 -8 19 4 49 31 49 44 0
7 7 14 15 18 8 3 15 12 15 21 0 8 5 15 10 15 6 0 10 9 10 21 0 11 4 18 9 14 5
-3 12 4 16 15 3 11 11 20 16 20 6 0 8 4 5 8 -3 5 7 22 22 39 16 16 27 34 25
40 -2 6 8 21 21 34 14 13 26 30 26 37 0 6 5 12 10 12 6 0 10 9 10 21 0 11 4
17 10 14 5 -3 12 5 16 19 3 13 12 27 20 30 8 3 14 10 14 16 0 6 11 26 25 44
14 18 25 38 25 43 0 6 7 13 15 17 8 3 15 12 15 21 0 8 5 15 10 15 6 0 10 9 10
21 0 11 4 18 9 15 8 -5 22 17 22 34 0 3 7 9 15 13 8 5 12 12 9 18 -4 5 -1 9 4
9 6 0 11 7 11 15 0 8 5 15 11 15 5 0 8 4 5 9 -3 5 1 12 10 15 8 3 12 10 9 16
-3 5 -1 10 5 10 6 0 8 5 5 10 -3 6 -1 10 5 10 6 0 15 11 22 25 6 13 14 22 18
20 7 -4 19 22 24 48 0 4 8 12 16 17 8 5 11 10 6 10 -5 0 1 9 13 19 13 11 20
25 16 30 -3 6 2 11 11 11 10 0 15 3 11 6 -6 6 38 72 57 85 5 4 5 12 2 18 -4 6
0 11 9 11 9 0 14 4 11 8 -3 5 6 20 19 34 13 14 21 29 18 32 -4 3 -1 6 5 6 7 0
12 7 12 15 0 8 5 15 11 15 5 0 8 4 5 9 -3 5 1 12 10 15 8 3 12 10 9 16 -3 5
-1 10 5 10 6 0 8 5 5 10 -3 6 -1 10 5 10 6 0 15 11 22 25 6 13 14 22 18 20 7
-4 19 22 24 48 0 4 8 12 16 17 8 5 11 10 6 10 -5 0 1 9 13 19 13 11 20 25 16
30 -3 6 1 11 9 11 9 0 15 3 14 8 -3 9 33 65 49 75 7 4 9 15 6 24 -4 10 -2 14
4 10 6 -4 16 7 23 23 7 17 17 30 23 30 6 0 8 3 4 6 -3 3 3 15 14 27 10 11 19
26 19 33 0 7 6 17 13 21 7 4 24 26 37 48 13 22 29 43 34 47 6 4 11 12 11 17 0
5 9 20 21 33 11 13 18 30 16 37 -3 8 0 11 7 7 6 -4 11 -1 11 8 0 9 5 16 10 16
6 0 10 5 10 10 0 6 8 20 19 31 15 17 19 37 12 70 -2 13 -41 16 -63 5z"/>
</g>
</svg>
